<?xml version="1.0" standalone="no"?>
<!DOCTYPE svg PUBLIC "-//W3C//DTD SVG 1.1//EN" "http://www.w3.org/Graphics/SVG/1.1/DTD/svg11.dtd" >
<svg xmlns="http://www.w3.org/2000/svg">
<metadata></metadata>
<defs>
<font id="kievitregular_italic" horiz-adv-x="1243" >
<font-face units-per-em="2048" ascent="1638" descent="-410" />
<missing-glyph horiz-adv-x="450" />
<glyph unicode="&#xfb01;" horiz-adv-x="1421" d="M86 0l199 1049h612l-23 -127h-462l-60 -314h412l-23 -125h-411l-90 -483h-154zM985 0l197 1049h151l-196 -1049h-152z" />
<glyph unicode="&#xfb02;" horiz-adv-x="1708" d="M86 0l199 1049h612l-23 -127h-462l-60 -314h412l-23 -125h-411l-90 -483h-154zM975 0l196 1049h152l-172 -922h428l-18 -127h-586z" />
<glyph horiz-adv-x="2048" />
<glyph horiz-adv-x="2048" />
<glyph unicode="&#xd;" horiz-adv-x="450" />
<glyph unicode=" "  horiz-adv-x="450" />
<glyph unicode="&#x09;" horiz-adv-x="450" />
<glyph unicode="&#xa0;" horiz-adv-x="450" />
<glyph unicode="!" horiz-adv-x="446" d="M49 88q0 41 31 70.5t76 29.5t74.5 -29.5t29.5 -70.5t-29.5 -71.5t-74.5 -30.5t-76 30.5t-31 71.5zM129 326l104 723h173l-166 -723h-111z" />
<glyph unicode="&#x22;" horiz-adv-x="735" d="M254 909l29 455h178l-90 -455h-117zM524 909l54 455h178l-115 -455h-117z" />
<glyph unicode="#" horiz-adv-x="1136" d="M49 446l31 115h258l74 277h-260l30 114h260l111 412h113l-111 -412h244l110 412h113l-111 -412h246l-31 -114h-245l-74 -277h250l-33 -115h-248l-121 -446h-112l121 446h-244l-119 -446h-113l119 446h-258zM451 561h243l74 277h-244z" />
<glyph unicode="$" horiz-adv-x="927" d="M-14 137l98 109q39 -35 94 -75t154 -56q6 39 14 86q6 39 14.5 89t18.5 103q23 123 49 277q-47 43 -91 85t-78 88t-53.5 98t-19.5 114q0 78 28 138t75 102t112.5 65.5t143.5 28.5l39 217h116l-38 -224q90 -12 148 -43.5t91 -56.5l-82 -121q-33 27 -76 53.5t-110 36.5 q-25 -137 -43 -243q-8 -47 -15.5 -90.5t-13.5 -77.5q-8 -39 -12 -76q51 -45 99 -89t84 -93.5t57.5 -106.5t21.5 -129q0 -66 -21.5 -130t-69.5 -116.5t-123 -86t-179 -38.5l-37 -217h-117l37 224q-66 8 -116 27.5t-89 42t-65.5 46t-44.5 39.5zM342 1055q0 -61 30.5 -109.5 t86.5 -99.5l69 407q-94 -8 -140 -60t-46 -138zM436 113q57 4 99.5 24.5t68 51t37.5 70.5t12 83q0 78 -35.5 132t-99.5 114l-41 -238z" />
<glyph unicode="%" horiz-adv-x="1652" d="M152 989q0 74 26.5 144.5t76.5 126t124 90t166 34.5q76 0 133 -26.5t96 -67.5t58.5 -92t19.5 -102q0 -74 -26.5 -144.5t-77 -126t-124 -90.5t-165.5 -35q-76 0 -133.5 27t-96.5 68t-58 93t-19 101zM244 0l1085 1364h144l-1086 -1364h-143zM283 1001q0 -84 47 -137 t139 -53q53 0 100 21.5t81 58.5t53.5 86t19.5 106q0 86 -47 138.5t-139 52.5q-55 0 -102.5 -21.5t-81.5 -58.5t-52 -86t-18 -107zM866 274q0 74 27 144.5t77 126t123.5 90.5t166.5 35q76 0 133 -27t96 -67.5t58.5 -92t19.5 -102.5q0 -74 -27 -144.5t-77 -126t-123.5 -90 t-165.5 -34.5q-76 0 -133.5 26.5t-96.5 67.5t-58.5 93t-19.5 101zM997 287q0 -84 47.5 -137.5t139.5 -53.5q53 0 100 21.5t81 58.5t53.5 86.5t19.5 106.5q0 86 -47.5 138t-139.5 52q-55 0 -102 -21.5t-81 -58.5t-52.5 -86t-18.5 -106z" />
<glyph unicode="&#x26;" horiz-adv-x="1038" d="M35 240q0 61 20.5 110t58.5 89t90 73t115 61q-41 53 -62 105.5t-21 109.5q0 63 25.5 115.5t69.5 89.5t102.5 56.5t123.5 19.5q115 0 182.5 -58.5t67.5 -148.5q0 -98 -74 -171t-215 -140l203 -252q82 109 123 236l127 -27q-63 -174 -174 -303l164 -205h-173l-90 109 q-72 -59 -156.5 -93t-176.5 -34q-82 0 -143.5 20.5t-103.5 56t-62.5 81.5t-20.5 100zM186 256q0 -66 48.5 -110t146.5 -44q68 0 129 26t115 71l-240 293q-98 -47 -148.5 -102.5t-50.5 -133.5zM381 805q0 -47 18.5 -89t55.5 -89q117 55 164 108t47 113q0 47 -31 78.5 t-90 31.5q-72 0 -118 -42t-46 -111z" />
<glyph unicode="'" horiz-adv-x="440" d="M238 909l41 455h186l-113 -455h-114z" />
<glyph unicode="(" horiz-adv-x="606" d="M84 342q0 223 59.5 406.5t143.5 324.5t176 241.5t158 160.5h145q-70 -63 -161 -167t-173 -245t-138 -321.5t-56 -395.5q0 -129 18 -234.5t49 -191.5t69 -155.5t75 -126.5h-134q-31 39 -70.5 102t-75.5 150t-60.5 200t-24.5 252z" />
<glyph unicode=")" horiz-adv-x="616" d="M-145 -362q86 82 182 196.5t177 260t134 320.5t53 376q0 125 -22.5 233.5t-55 194.5t-70.5 150.5t-69 105.5h140q31 -37 70.5 -100.5t75.5 -149.5t60.5 -194.5t24.5 -237.5q0 -227 -63.5 -416t-152.5 -334t-182.5 -247.5t-152.5 -157.5h-149z" />
<glyph unicode="*" horiz-adv-x="888" d="M176 1059l49 115l260 -99l41 289h136l-62 -291l281 96l26 -114l-297 -74l148 -252l-109 -55l-129 252l-209 -252l-92 71l219 238z" />
<glyph unicode="+" horiz-adv-x="1153" d="M135 479l23 125h366l66 379h137l-65 -379h370l-22 -125h-371l-70 -397h-137l70 397h-367z" />
<glyph unicode="," horiz-adv-x="442" d="M-12 -240q41 39 76.5 85t35.5 100q0 27 -9 45t-19.5 35.5t-19.5 38t-9 49.5q0 51 33 83.5t80 32.5q51 0 90 -35.5t39 -101.5q0 -63 -23.5 -122.5t-59.5 -109.5t-77 -91t-74 -66z" />
<glyph unicode="-" horiz-adv-x="624" d="M111 522l22 131h412l-23 -131h-411z" />
<glyph unicode="." horiz-adv-x="442" d="M39 104q0 49 36 85t89 36q49 0 85 -36t36 -85q0 -51 -36 -86.5t-85 -35.5q-53 0 -89 35.5t-36 86.5z" />
<glyph unicode="/" horiz-adv-x="823" d="M-117 -330l946 1805h138l-947 -1805h-137z" />
<glyph unicode="0" horiz-adv-x="1200" d="M115 516q0 96 17.5 198.5t51 199t84.5 183.5t121 151.5t157 102.5t191 38q113 0 192 -44.5t129 -116t72.5 -165.5t22.5 -195q0 -158 -39 -317.5t-116.5 -287.5t-196.5 -208t-275 -80q-115 0 -193.5 44t-126.5 119t-69.5 172.5t-21.5 205.5zM270 520q0 -190 62.5 -303 t208.5 -113q104 0 188 64.5t142.5 171t89 244t30.5 282.5q0 86 -14 159t-46 125t-84 81t-126 29q-104 0 -188 -67t-142.5 -173.5t-89.5 -237.5t-31 -262z" />
<glyph unicode="1" horiz-adv-x="681" d="M137 1257l352 107h125l-235 -1364h-150l211 1223l-270 -88z" />
<glyph unicode="2" horiz-adv-x="995" d="M18 0l17 88q174 145 318.5 274.5t249 248t162.5 230t58 222.5q0 94 -56 143t-149 49q-106 0 -176.5 -37.5t-130.5 -84.5l-82 98q78 68 180.5 113t225.5 45q166 0 261 -82t95 -228q0 -129 -67.5 -255t-174 -244.5t-239.5 -231t-262 -217.5q27 0 53 2q23 0 50.5 1t54.5 1 h454l-24 -135h-818z" />
<glyph unicode="3" horiz-adv-x="931" d="M23 -6l30 131q14 -4 55.5 -10t110.5 -6q203 0 317.5 83.5t114.5 241.5q0 66 -28.5 112t-78.5 75.5t-121 41t-155 9.5l17 108q94 12 175 37t140 65t93 95t34 127q0 68 -48 107.5t-140 39.5q-96 0 -160 -21.5t-127 -62.5l-66 101q66 49 164.5 85t210.5 36q86 0 147.5 -21.5 t101.5 -58.5t59.5 -86t19.5 -105q0 -74 -30 -134t-79 -107.5t-113.5 -81t-131.5 -54.5q57 -10 108 -35.5t89 -64.5t59.5 -90t21.5 -113q0 -117 -49 -202.5t-132 -144t-191.5 -87.5t-229.5 -29q-92 0 -132 7.5t-56 11.5z" />
<glyph unicode="4" horiz-adv-x="1056" d="M33 309l20 125l770 930h156l-160 -918h193l-23 -137h-192l-54 -309h-143l55 309h-622zM213 438q27 4 74 6t94 2h293l119 693h-5z" />
<glyph unicode="5" horiz-adv-x="888" d="M18 -10l31 133q18 -4 54 -9t90 -5q217 0 337.5 97t120.5 277q0 133 -96 190.5t-260 57.5q-33 0 -64.5 -1t-48.5 -3l123 637h602l-22 -135h-461l-70 -367q217 -8 337 -104t120 -260q0 -129 -46 -226.5t-131 -163t-202 -99.5t-258 -34q-57 0 -97 5.5t-59 9.5z" />
<glyph unicode="6" horiz-adv-x="1038" d="M92 440q0 201 70.5 374t194.5 301t293 201t364 73l18 -121q-135 0 -256 -40t-218 -114t-167.5 -179.5t-107.5 -236.5q53 57 136 93t173 36q176 0 269 -97t93 -253q0 -98 -32.5 -189t-94 -161t-147.5 -111t-193 -41q-106 0 -181 40t-123 105.5t-69.5 149.5t-21.5 170z M248 430q0 -154 60.5 -240t189.5 -86q80 0 136 33t92 85t53.5 119t17.5 132q0 111 -58.5 169t-169.5 58q-100 0 -170.5 -32t-140.5 -93q-4 -35 -7 -70.5t-3 -74.5z" />
<glyph unicode="7" horiz-adv-x="894" d="M115 0l651 1229h-598l22 135h766l-18 -111l-698 -1312z" />
<glyph unicode="8" horiz-adv-x="978" d="M51 287q0 76 27.5 138t75 114.5t109.5 95.5t134 80q-74 57 -128 135t-54 176q0 80 33 146.5t90 114.5t132 75t159 27q168 0 253 -79t85 -202q0 -68 -27 -124t-72 -104.5t-103 -87t-122 -71.5q98 -63 162.5 -147.5t64.5 -194.5q0 -82 -30.5 -154.5t-89 -128t-143.5 -88.5 t-193 -33q-92 0 -160 26t-113 69t-67.5 99t-22.5 118zM209 297q0 -82 55 -135t166 -53q63 0 115.5 19t89.5 54t57.5 82t20.5 103q0 86 -58.5 150t-162.5 130q-66 -35 -118 -70.5t-89 -77.5t-56.5 -91.5t-19.5 -110.5zM371 1032q0 -76 45 -131t129 -110q127 63 196.5 133.5 t69.5 165.5q0 72 -45 119.5t-150 47.5q-51 0 -96 -16t-77.5 -46t-52 -72t-19.5 -91z" />
<glyph unicode="9" horiz-adv-x="1038" d="M72 84q297 0 491 153.5t260 432.5q-66 -68 -153.5 -100.5t-167.5 -32.5q-170 0 -265.5 97t-95.5 253q0 100 38 191t102.5 160t151.5 110t185 41q109 0 182.5 -40t119 -104.5t65 -145.5t19.5 -163q0 -209 -61.5 -387t-179.5 -308t-289 -204t-388 -74zM299 893 q0 -229 225 -229q98 0 174 31.5t146 92.5q4 37 6 75t2 79q0 143 -60.5 230.5t-187.5 87.5q-72 0 -128 -34t-96 -86.5t-60.5 -118t-20.5 -128.5z" />
<glyph unicode=":" horiz-adv-x="442" d="M39 104q0 49 36 85t89 36q49 0 85 -36t36 -85q0 -51 -36 -86.5t-85 -35.5q-53 0 -89 35.5t-36 86.5zM168 872q0 49 36 85t89 36q49 0 85 -36t36 -85q0 -51 -36 -86.5t-85 -35.5q-53 0 -89 35.5t-36 86.5z" />
<glyph unicode=";" horiz-adv-x="442" d="M-12 -240q41 39 76.5 85t35.5 100q0 27 -9 45t-19.5 35.5t-19.5 38t-9 49.5q0 51 33 83.5t80 32.5q51 0 90 -35.5t39 -101.5q0 -63 -23.5 -122.5t-59.5 -109.5t-77 -91t-74 -66zM170 872q0 49 36 85t89 36q49 0 85 -36t36 -85q0 -51 -36 -86.5t-85 -35.5q-53 0 -89 35.5 t-36 86.5z" />
<glyph unicode="&#x3c;" horiz-adv-x="815" d="M94 504l572 446l75 -98l-465 -358l334 -357l-88 -84z" />
<glyph unicode="=" horiz-adv-x="1087" d="M113 313l22 129h797l-23 -129h-796zM172 647l23 129h796l-22 -129h-797z" />
<glyph unicode="&#x3e;" horiz-adv-x="815" d="M74 152l465 358l-334 356l88 84l428 -450l-571 -447z" />
<glyph unicode="?" horiz-adv-x="681" d="M63 88q0 41 31 70.5t76 29.5q43 0 73.5 -29.5t30.5 -70.5t-30.5 -71.5t-73.5 -30.5q-45 0 -76 30.5t-31 71.5zM143 319l19 95q12 74 46 116.5t107 83.5q82 43 131.5 84t49.5 121q0 57 -40 92t-122 35q-45 0 -82 -11t-57 -22l-50 109q45 23 95.5 35t117.5 12 q70 0 125.5 -19.5t92 -51t56 -73.5t19.5 -87q0 -61 -22.5 -108.5t-59.5 -84.5t-83 -64.5t-91 -52.5q-47 -27 -71.5 -54.5t-34.5 -76.5l-15 -78h-131z" />
<glyph unicode="@" horiz-adv-x="1525" d="M82 492q0 152 55.5 292t154.5 247.5t235.5 172t297.5 64.5q162 0 287 -58.5t210 -147.5t128 -199t43 -210q0 -96 -26.5 -184t-73.5 -154.5t-113 -105.5t-143 -39q-104 0 -159.5 64.5t-55.5 164.5h-4q-14 -33 -39 -72.5t-60 -74.5t-82 -58.5t-104 -23.5q-47 0 -83 20.5 t-60.5 53t-37 75.5t-12.5 87q0 98 27 195t81 175t136 126t190 48q66 0 130.5 -16t109.5 -27l-51 -284q-8 -41 -18.5 -94.5t-10.5 -100.5q0 -59 31 -101t78 -42q51 0 94 28.5t73.5 76.5t48 112.5t17.5 136.5q0 113 -43 207t-117.5 162.5t-175 107.5t-215.5 39 q-117 0 -226.5 -52t-194.5 -141.5t-136 -209t-51 -254.5q0 -123 38 -226.5t109.5 -180.5t176 -120t237.5 -43q90 0 173 18.5t132 41.5l47 -105q-57 -23 -157.5 -46t-216.5 -23q-158 0 -283 53t-212 145t-133 216t-46 264zM590 428q0 -45 18.5 -88t61.5 -43q61 0 109 49 t85 123t62.5 159t40.5 156l8 41q-8 2 -22.5 6.5t-31 7.5t-33 5t-26.5 2q-61 0 -112.5 -36t-86 -94.5t-54 -133t-19.5 -154.5z" />
<glyph unicode="A" d="M-43 0l764 1364h153l236 -1364h-160l-55 338h-592l-186 -338h-160zM377 473h495l-73 457q-8 47 -15.5 93t-11.5 81q-6 41 -10 80h-4q-16 -41 -39 -82q-18 -37 -42 -81t-48 -91z" />
<glyph unicode="B" horiz-adv-x="1144" d="M100 0l244 1364h342q178 0 283.5 -75t105.5 -220t-78.5 -234.5t-216.5 -123.5v-4q104 -20 174 -90t70 -183q0 -111 -42 -192.5t-116.5 -136t-178 -80t-228.5 -25.5h-359zM281 133h188q213 0 303 74t90 221q0 98 -69.5 159.5t-219.5 61.5h-202zM393 776h197 q164 0 242.5 72.5t78.5 195.5q0 94 -58 140.5t-191 46.5h-187z" />
<glyph unicode="C" d="M119 547q0 174 60.5 326.5t165 267t246.5 181.5t308 67q74 0 131 -7.5t101.5 -19.5t79 -29.5t65.5 -38.5l-92 -118q-53 37 -123 58t-174 21q-133 0 -244 -55t-190.5 -151.5t-123.5 -224.5t-44 -271q0 -92 22.5 -173t70.5 -141.5t124 -94t182 -33.5q113 0 193.5 34.5 t150.5 87.5l70 -110q-33 -29 -79 -55.5t-102.5 -47t-118 -33t-124.5 -12.5q-141 0 -244.5 45.5t-173.5 122t-103.5 181t-33.5 223.5z" />
<glyph unicode="D" horiz-adv-x="1351" d="M100 0l244 1364h301q170 0 293 -38t203 -106.5t118.5 -166t38.5 -215.5q0 -162 -51 -313.5t-155.5 -268.5t-261 -186.5t-367.5 -69.5h-363zM283 131h204q158 0 279 54.5t202 148.5t123 221t42 272q0 211 -121 308.5t-385 97.5h-150z" />
<glyph unicode="E" horiz-adv-x="1011" d="M100 0l244 1364h686l-24 -135h-529l-80 -438h467l-24 -136h-465l-92 -520h542l-24 -135h-701z" />
<glyph unicode="F" horiz-adv-x="989" d="M100 0l244 1364h700l-24 -135h-543l-80 -438h475l-24 -136h-473l-117 -655h-158z" />
<glyph unicode="G" horiz-adv-x="1413" d="M121 549q0 170 60.5 322.5t166 267t250.5 182.5t315 68q162 0 263.5 -38t152.5 -77l-94 -119q-53 41 -138 70.5t-198 29.5q-137 0 -249.5 -56t-193.5 -151.5t-125 -222.5t-44 -270q0 -98 25.5 -180t77.5 -141.5t131 -93.5t188 -34q78 0 137 11.5t101 26t65.5 28.5 t31.5 18l68 388h-297l25 135h452l-108 -602q-10 -6 -46 -29t-97.5 -46.5t-147.5 -42t-195 -18.5q-141 0 -249.5 44t-181 121t-109.5 182.5t-37 226.5z" />
<glyph unicode="H" horiz-adv-x="1452" d="M100 0l242 1364h158l-103 -578h758l102 578h158l-244 -1364h-157l116 651h-755l-117 -651h-158z" />
<glyph unicode="I" horiz-adv-x="563" d="M113 0l243 1364h158l-244 -1364h-157z" />
<glyph unicode="J" horiz-adv-x="552" d="M-219 -367l55 136q10 -4 27.5 -9.5t46.5 -5.5q160 0 203 242l243 1368h156l-248 -1393q-31 -176 -120 -268t-240 -92q-45 0 -79 8t-44 14z" />
<glyph unicode="K" horiz-adv-x="1132" d="M100 0l244 1364h154l-242 -1364h-156zM395 711l647 653h185l-656 -655l467 -709h-178z" />
<glyph unicode="L" horiz-adv-x="937" d="M100 0l244 1364h156l-217 -1229h524l-23 -135h-684z" />
<glyph unicode="M" horiz-adv-x="1708" d="M41 0l424 1364h143l158 -987q10 -61 14 -105.5t11 -99.5h4q29 59 50 104.5t50 100.5l516 987h145l-69 -1364h-152l49 895q4 72 8.5 117t10.5 82h-4q-16 -37 -36 -77t-52 -102l-482 -915h-145l-145 903q-10 68 -17.5 112t-11.5 79h-4q-6 -37 -18.5 -82t-34.5 -117 l-267 -895h-145z" />
<glyph unicode="N" horiz-adv-x="1406" d="M94 0l244 1364h154l460 -950q53 -115 80 -199h4q4 41 12.5 97.5t18.5 115.5l166 936h143l-241 -1364h-146l-473 977q-23 47 -40 88t-34 92h-4q-4 -41 -11 -87t-17 -107l-172 -963h-144z" />
<glyph unicode="O" horiz-adv-x="1503" d="M123 563q0 152 53 300.5t150.5 265t234.5 188.5t307 72q145 0 254 -48.5t179.5 -130.5t105.5 -189.5t35 -225.5q0 -152 -51.5 -298.5t-148.5 -262t-235.5 -187.5t-310.5 -72q-137 0 -243.5 48.5t-180 130.5t-111.5 188.5t-38 220.5zM287 565q0 -94 28.5 -177t82 -145.5 t131 -98t176.5 -35.5q135 0 241.5 58t180 155.5t112.5 221.5t39 253q0 92 -26.5 175t-79 145.5t-131 100t-183.5 37.5q-135 0 -240.5 -58t-179 -154.5t-112.5 -221.5t-39 -256z" />
<glyph unicode="P" horiz-adv-x="1073" d="M100 0l244 1364h322q190 0 305.5 -87t115.5 -253q0 -113 -41.5 -201t-117.5 -148.5t-179.5 -92t-226.5 -31.5h-166l-98 -551h-158zM381 686h156q197 0 291 87.5t94 232.5q0 51 -14.5 92t-48.5 69.5t-88 45t-132 16.5h-162z" />
<glyph unicode="Q" horiz-adv-x="1503" d="M123 563q0 152 53 300.5t150.5 265t234.5 188.5t307 72q145 0 254 -48.5t179.5 -130.5t105.5 -189.5t35 -225.5q0 -147 -50.5 -293t-144.5 -260.5t-228 -188.5t-302 -78q61 -92 136 -134t183 -42q86 0 150.5 28t91.5 44l55 -119q-43 -29 -119.5 -56.5t-191.5 -27.5 q-158 0 -283 79t-235 257q-92 31 -163 87t-120 130t-73.5 162t-24.5 180zM287 565q0 -94 28.5 -177t82 -145.5t131 -98t176.5 -35.5q135 0 241.5 58t180 155.5t112.5 221.5t39 253q0 92 -26.5 175t-79 145.5t-131 100t-183.5 37.5q-135 0 -240.5 -58t-179 -154.5 t-112.5 -221.5t-39 -256z" />
<glyph unicode="R" horiz-adv-x="1163" d="M100 0l244 1364h356q180 0 281.5 -83t101.5 -228q0 -182 -117.5 -286.5t-326.5 -121.5v-4q25 -16 54.5 -51t76.5 -119l260 -471h-176l-215 393q-41 74 -69.5 120t-54.5 71.5t-54.5 35t-69.5 9.5h-20l-113 -629h-158zM391 760h207q170 0 247 79.5t77 204.5q0 184 -252 185 h-193z" />
<glyph unicode="S" horiz-adv-x="927" d="M-14 137l98 109q23 -20 50.5 -44t65.5 -44.5t88 -33.5t118 -13t114.5 18t76.5 51t43 74t13 88q0 49 -15 89t-43 76t-68 72.5t-89 79.5t-94 87.5t-81 91.5t-56.5 100t-20.5 117q0 82 30 144.5t82 104.5t123 63.5t152 21.5q63 0 115.5 -11.5t92.5 -27t70 -35t50 -33.5 l-82 -121q-20 16 -43.5 32.5t-53.5 31t-69 22.5t-90 8q-113 0 -167 -53t-54 -147q0 -43 14.5 -78t42 -69t65.5 -68.5t85 -75.5q51 -45 99 -89t84 -93.5t57.5 -106.5t21.5 -129q0 -66 -23.5 -132.5t-73.5 -119.5t-129 -86t-190 -33q-86 0 -153.5 17.5t-117.5 43t-84 53.5 t-54 48z" />
<glyph unicode="T" horiz-adv-x="995" d="M168 1229l22 135h918l-23 -135h-374l-219 -1229h-158l219 1229h-385z" />
<glyph unicode="U" horiz-adv-x="1382" d="M176 295q-7 44 -7 92q0 58 11 123l152 854h155l-147 -834q-14 -77 -14 -139q0 -114 46 -178q72 -100 265 -100q188 0 286.5 101t135.5 306l149 844h148l-156 -870q-23 -119 -64.5 -214.5t-111.5 -163t-168 -104.5t-233 -37q-133 0 -226.5 40t-149 111t-71.5 169z" />
<glyph unicode="V" horiz-adv-x="1214" d="M188 1364h158l184 -940q14 -68 24.5 -136.5t14.5 -107.5h4q18 41 48 109.5t65 134.5l481 940h162l-715 -1364h-149z" />
<glyph unicode="W" horiz-adv-x="1751" d="M193 1364h155l76 -846q8 -84 13 -157.5t7 -131.5h5q18 55 49.5 128t68.5 157l375 850h160l100 -883q10 -84 15.5 -139t9.5 -113h4q10 29 20.5 56.5t22.5 57.5t26.5 64.5t32.5 77.5l365 879h164l-596 -1364h-146l-100 864q-10 92 -17.5 162t-13.5 145h-4 q-29 -76 -59.5 -145.5t-71.5 -161.5l-389 -864h-141z" />
<glyph unicode="X" horiz-adv-x="1134" d="M-35 0l551 713l-285 651h164l228 -543l397 543h174l-510 -662l309 -702h-164l-251 594l-439 -594h-174z" />
<glyph unicode="Y" horiz-adv-x="1114" d="M184 1364h164l246 -700h2l465 700h166l-578 -852l-92 -512h-158l93 514z" />
<glyph unicode="Z" horiz-adv-x="1054" d="M-33 0l21 113l915 1120h-682l25 131h880l-20 -104l-926 -1129h752l-25 -131h-940z" />
<glyph unicode="[" horiz-adv-x="616" d="M18 -330l314 1805h403l-20 -115h-262l-273 -1575h262l-20 -115h-404z" />
<glyph unicode="\" horiz-adv-x="759" d="M160 1475h129l334 -1805h-129z" />
<glyph unicode="]" horiz-adv-x="614" d="M-94 -330l20 115h260l275 1575h-262l20 115h404l-314 -1805h-403z" />
<glyph unicode="^" horiz-adv-x="1239" d="M160 590l551 774h102l272 -774h-131l-213 629l-444 -629h-137z" />
<glyph unicode="_" horiz-adv-x="792" d="M-150 -326l23 125h801l-23 -125h-801z" />
<glyph unicode="`" horiz-adv-x="1024" d="M342 1364h199l145 -258h-127z" />
<glyph unicode="a" horiz-adv-x="1044" d="M-45 0l616 1049h148l192 -1049h-149l-43 240h-473l-137 -240h-154zM319 369h377l-57 327q-8 37 -12 71t-9 62q-4 31 -6 60h-4q-12 -29 -28 -60q-14 -29 -33 -62.5t-39 -70.5z" />
<glyph unicode="b" horiz-adv-x="974" d="M86 0l199 1049h293q70 0 127 -14.5t99 -44t65.5 -73t23.5 -100.5q0 -111 -62.5 -179.5t-171.5 -94.5v-2q80 -16 137.5 -68.5t57.5 -140.5q0 -84 -33 -146.5t-93 -103.5t-145 -61.5t-188 -20.5h-309zM260 123h146q160 0 227 52t67 155q0 74 -52 115.5t-165 41.5h-155z M348 604h150q123 0 182 51.5t59 137.5q0 68 -43 101.5t-145 33.5h-141z" />
<glyph unicode="c" horiz-adv-x="1019" d="M84 422q0 131 48 248.5t133 207t201 140.5t253 51q121 0 189.5 -21.5t115.5 -54.5l-80 -112q-41 27 -96 43t-141 16q-102 0 -187.5 -40t-147 -109.5t-95 -162.5t-33.5 -198q0 -68 17.5 -126t54 -101t94 -67.5t137.5 -24.5q90 0 154.5 26.5t117.5 65.5l64 -107 q-51 -43 -144 -78.5t-204 -35.5q-115 0 -200 34.5t-140.5 94t-83 139.5t-27.5 172z" />
<glyph unicode="d" horiz-adv-x="1146" d="M86 0l197 1049h262q268 0 398 -112t130 -296q0 -127 -42 -242.5t-126 -204t-213 -141.5t-301 -53h-305zM262 125h156q121 0 214 39t155.5 107.5t94 160.5t31.5 201q0 152 -90 222.5t-293 70.5h-118z" />
<glyph unicode="e" horiz-adv-x="937" d="M86 0l197 1049h614l-25 -127h-462l-58 -308h414l-23 -125h-413l-70 -362h483l-24 -127h-633z" />
<glyph unicode="f" horiz-adv-x="905" d="M86 0l199 1049h612l-23 -127h-462l-60 -314h412l-23 -125h-411l-90 -483h-154z" />
<glyph unicode="g" horiz-adv-x="1144" d="M86 426q0 131 49 248t135 205t205 139t258 51q133 0 216 -28.5t124 -59.5l-80 -117q-41 29 -112.5 52.5t-159.5 23.5q-109 0 -197 -39t-149.5 -108.5t-95 -162.5t-33.5 -200q0 -145 78.5 -234.5t246.5 -89.5q109 0 170.5 22t81.5 34l49 272h-229l21 125h380l-90 -475 q-12 -10 -42.5 -26.5t-80 -34t-117 -29.5t-151.5 -12q-119 0 -208 33.5t-149.5 94t-90 141.5t-29.5 175z" />
<glyph unicode="h" d="M86 0l195 1049h151l-80 -435h580l82 435h151l-196 -1049h-152l92 485h-579l-92 -485h-152z" />
<glyph unicode="i" horiz-adv-x="532" d="M96 0l197 1049h151l-196 -1049h-152z" />
<glyph unicode="j" horiz-adv-x="509" d="M-186 -287l49 127q8 -4 22.5 -8t40.5 -4q125 0 160 178l195 1043h151l-199 -1065q-29 -147 -103.5 -218t-207.5 -71q-39 0 -67.5 6t-40.5 12z" />
<glyph unicode="k" horiz-adv-x="1009" d="M86 0l199 1049h147l-194 -1049h-152zM365 549l509 500h183l-522 -502l358 -547h-166z" />
<glyph unicode="l" horiz-adv-x="833" d="M86 0l197 1049h151l-172 -922h428l-18 -127h-586z" />
<glyph unicode="m" horiz-adv-x="1417" d="M37 0l342 1049h141l117 -730q10 -53 13 -91t7 -74h5q16 37 34.5 74.5t46.5 90.5l400 730h141l-55 -1049h-148l39 645q4 55 8.5 96t8.5 68h-4q-10 -25 -26.5 -63.5t-43.5 -86.5l-367 -659h-141l-104 651q-10 53 -15.5 93t-7.5 65h-4q-4 -25 -14.5 -64.5t-28.5 -99.5 l-205 -645h-139z" />
<glyph unicode="n" horiz-adv-x="1212" d="M82 0l197 1049h149l348 -687q25 -49 43.5 -93t26.5 -68h2q4 25 9 70.5t15 97.5l129 680h138l-195 -1049h-137l-365 711q-23 47 -38 82.5t-25 64.5h-2q-4 -29 -8 -65.5t-15 -87.5l-135 -705h-137z" />
<glyph unicode="o" horiz-adv-x="1241" d="M86 434q0 119 44 232.5t125 202.5t192.5 144.5t246.5 55.5q117 0 205 -37t146.5 -100.5t88 -145t29.5 -174.5q0 -117 -43 -230.5t-122.5 -202.5t-192.5 -143t-252 -54q-113 0 -200 37.5t-146.5 100t-90 144.5t-30.5 170zM244 436q0 -68 21.5 -128t61.5 -104t99 -69.5 t137 -25.5q104 0 186 43t139.5 113.5t87.5 160.5t30 186q0 68 -20.5 127.5t-60.5 104.5t-100.5 71.5t-140.5 26.5q-104 0 -185 -43t-138.5 -113.5t-87 -162t-29.5 -187.5z" />
<glyph unicode="p" horiz-adv-x="946" d="M86 0l197 1049h280q154 0 250 -70t96 -199q0 -90 -34.5 -159.5t-97 -116.5t-147.5 -71.5t-186 -24.5h-129l-77 -408h-152zM338 532h121q154 0 224.5 63.5t70.5 170.5q0 72 -49.5 116t-165.5 44h-127z" />
<glyph unicode="q" horiz-adv-x="1241" d="M86 434q0 119 44 232.5t125 202.5t192.5 144.5t246.5 55.5q117 0 205 -37t146.5 -100.5t88 -145t29.5 -174.5q0 -115 -40 -224t-115.5 -197.5t-182 -144.5t-237.5 -64q47 -66 104.5 -94.5t136.5 -28.5q66 0 116 19.5t73 31.5l47 -109q-35 -20 -96.5 -41.5t-153.5 -21.5 q-129 0 -231.5 61.5t-192.5 204.5q-74 25 -131 68t-95 100t-58.5 123.5t-20.5 138.5zM244 436q0 -68 21.5 -128t61.5 -105t99 -71t137 -26q104 0 186 43.5t139.5 115t87.5 161.5t30 186q0 68 -20.5 127.5t-60.5 104.5t-100.5 71.5t-140.5 26.5q-104 0 -185 -43 t-138.5 -113.5t-87 -162t-29.5 -187.5z" />
<glyph unicode="r" horiz-adv-x="995" d="M86 0l199 1049h303q152 0 235.5 -64.5t83.5 -181.5q0 -141 -94 -221t-256 -97v-4q23 -14 49.5 -46t61.5 -93l194 -342h-166l-166 303q-31 51 -52 84t-40.5 50.5t-41 23.5t-52.5 6h-16l-88 -467h-154zM346 586h158q129 0 188.5 56t59.5 149q0 135 -191 135h-149z" />
<glyph unicode="s" horiz-adv-x="796" d="M-14 104l90 103q16 -14 37.5 -31.5t51.5 -32t69.5 -24.5t93.5 -10q104 0 149 47t45 112q0 33 -10 59.5t-31.5 52.5t-54.5 53.5t-78 64.5q-41 33 -78 65.5t-64.5 68.5t-44 77t-16.5 92q0 63 25 113.5t69 84t103 52t129 18.5q109 0 173.5 -28.5t98.5 -55.5l-75 -108 q-33 25 -78 46t-127 21q-86 0 -129 -37t-43 -100q0 -31 9 -55.5t29.5 -49t52.5 -51t75 -61.5q41 -33 79.5 -67t68.5 -71.5t48.5 -81.5t18.5 -96q0 -55 -20.5 -108t-63.5 -94t-110 -65.5t-159 -24.5q-72 0 -126 13t-95 31.5t-68.5 40t-43.5 37.5z" />
<glyph unicode="t" horiz-adv-x="864" d="M115 922l22 127h778l-20 -127h-309l-174 -922h-152l174 922h-319z" />
<glyph unicode="u" horiz-adv-x="1146" d="M128 243q-6 35 -6 73q0 46 9 96l119 637h149l-116 -623q-10 -54 -10 -100q0 -82 34 -134q53 -80 203 -81q150 0 222.5 79.5t101.5 227.5l118 631h142l-123 -650q-39 -203 -151.5 -310t-321.5 -107q-111 0 -189 32.5t-123 91t-58 137.5z" />
<glyph unicode="v" horiz-adv-x="1024" d="M135 1049h152l143 -695q10 -49 18.5 -103t10.5 -81h4q14 29 37.5 83t50.5 101l375 695h155l-579 -1049h-144z" />
<glyph unicode="w" horiz-adv-x="1449" d="M137 1049h152l53 -615q6 -68 10 -129t6 -98h4q10 35 37 97.5t58 129.5l286 615h152l72 -635q8 -66 10 -119t6 -88h4q14 37 35.5 89t50.5 118l279 635h153l-483 -1049h-141l-72 637q-8 74 -11 135.5t-7 110.5h-5q-18 -49 -42.5 -108.5t-61.5 -137.5l-303 -637h-135z" />
<glyph unicode="x" horiz-adv-x="958" d="M-37 0l445 547l-230 502h158l174 -400l305 400h164l-410 -510l248 -539h-160l-188 434l-338 -434h-168z" />
<glyph unicode="y" horiz-adv-x="940" d="M135 1049h158l188 -514l359 514h157l-462 -656l-78 -393h-150l74 395z" />
<glyph unicode="z" horiz-adv-x="911" d="M-18 0l20 104l709 820h-529l23 125h721l-19 -101l-719 -823h582l-22 -125h-766z" />
<glyph unicode="{" horiz-adv-x="714" d="M59 528l21 115q111 0 176.5 56.5t83.5 164.5l68 391q20 117 90.5 168.5t169.5 51.5h166l-21 -117h-133q-68 0 -97.5 -42t-43.5 -120l-62 -358q-23 -123 -85 -180.5t-159 -77.5v-5q86 -25 129.5 -83t24.5 -168l-65 -383q-14 -80 1 -117t85 -37h135l-21 -117h-162 q-43 0 -80.5 15.5t-65.5 46t-40 74.5t-2 102l72 395q18 104 -27 163.5t-158 61.5z" />
<glyph unicode="|" horiz-adv-x="575" d="M231 -512v2048h117v-2048h-117z" />
<glyph unicode="}" horiz-adv-x="714" d="M-92 -330l20 117h133q72 0 100.5 44t41.5 118l63 375q18 113 82 173t164 89v4q-86 23 -129 83t-25 171l62 360q14 82 -1.5 118t-84.5 36h-135l20 117h172q41 0 78 -14.5t62.5 -44.5t36 -74t-0.5 -103l-65 -375q-16 -100 32 -160.5t152 -64.5l-20 -115q-100 0 -170 -54 t-90 -167l-72 -414q-20 -117 -92 -168t-160 -51h-174z" />
<glyph unicode="~" horiz-adv-x="1204" d="M113 518q47 41 116.5 81t151.5 40q70 0 122 -22.5t100 -48t100.5 -48t123.5 -22.5q49 0 99.5 23.5t95.5 60.5l70 -93q-55 -53 -129 -88.5t-148 -35.5q-84 0 -142.5 22.5t-107.5 49t-94 49t-102 22.5q-61 0 -104.5 -25.5t-78.5 -56.5z" />
<glyph unicode="&#xa1;" horiz-adv-x="446" d="M45 0l166 723h111l-105 -723h-172zM190 961q0 41 30 71.5t75 30.5t75.5 -31t30.5 -71q0 -41 -30.5 -71t-75.5 -30t-75 30t-30 71z" />
<glyph unicode="&#xa2;" horiz-adv-x="806" d="M55 356q0 123 35 230.5t95.5 190.5t139 139.5t167.5 78.5l38 219h146l-37 -208q72 -6 117 -25.5t71 -40.5l-75 -117q-23 16 -64 33.5t-113 17.5q-68 0 -134 -34.5t-119.5 -100t-86 -159t-32.5 -207.5q0 -139 52 -203t138 -64q45 0 84 12.5t68.5 30t52.5 37t37 33.5 l88 -96q-16 -16 -43 -38t-60.5 -41t-74.5 -36.5t-88 -25.5q-2 -16 -6 -37q-4 -16 -6.5 -37t-6.5 -43q-8 -53 -20 -117h-146q12 63 21 117q4 23 6 43t6 37q4 20 6 37q-119 23 -187.5 119t-68.5 255z" />
<glyph unicode="&#xa3;" horiz-adv-x="931" d="M16 0l19 100q63 33 112.5 81t84 102.5t56 112t29.5 106.5q8 51 13 108h-195l21 119h178q4 70 7 140.5t15 144.5q31 178 127.5 276.5t274.5 98.5q51 0 90 -6.5t67.5 -17.5t49 -23.5t36.5 -24.5l-75 -119q-29 18 -70 38.5t-117 20.5q-96 0 -150 -59t-79 -194 q-12 -70 -16.5 -136.5t-8.5 -138.5h299l-20 -119h-287q-2 -27 -6 -54.5t-8 -55.5q-12 -76 -38 -136.5t-56.5 -106.5t-63.5 -78t-61 -52h520l-21 -127h-727z" />
<glyph unicode="&#xa4;" horiz-adv-x="1116" d="M41 463l20 119h142q2 43 7 85t13 83h-131l21 118h141q37 115 98.5 211.5t144.5 165t182 106.5t214 38q68 0 116 -7.5t83.5 -18.5t61.5 -25.5t48 -30.5l-82 -121q-35 23 -88 46t-155 23q-84 0 -155 -28.5t-129 -78.5t-102.5 -122t-72.5 -158h366l-20 -118h-379 q-8 -41 -13 -83t-7 -85h368l-20 -119h-348q6 -78 26.5 -142.5t59 -111.5t97 -72.5t138.5 -25.5q90 0 157.5 28.5t108.5 53.5l56 -123q-47 -29 -128 -62t-210 -33q-115 0 -200 39t-141.5 106.5t-88 156t-37.5 186.5h-162z" />
<glyph unicode="&#xa5;" horiz-adv-x="1114" d="M106 197l23 118h334l26 148h-335l22 119h297l-283 782h154l248 -717h2l471 717h160l-531 -782h297l-22 -119h-330l-27 -148h332l-22 -118h-332l-35 -197h-149l34 197h-334z" />
<glyph unicode="&#xa6;" horiz-adv-x="2205" d="M143 -444v1919h1919v-1919h-1919zM297 -291h1612v1612h-1612v-1612zM782 0v1042h140v-495l413 495h162l-414 -489l441 -553h-174q-121 150 -215 268q-41 51 -80 98.5t-68 86.5q-37 43 -65 84v-537h-140z" />
<glyph unicode="&#xa7;" horiz-adv-x="837" d="M6 -240l78 111q25 -18 60.5 -34.5t101.5 -16.5q100 0 148 57t48 141q0 76 -50 155t-110.5 165t-110.5 179t-50 198q0 98 49 163.5t137 118.5q-16 37 -26.5 76t-10.5 80q0 90 33 155.5t83 107.5t112.5 62.5t124.5 20.5q100 0 152 -19.5t87 -43.5l-80 -117 q-23 16 -60.5 33.5t-109.5 17.5q-98 0 -146 -60.5t-48 -150.5q0 -74 50 -150.5t111.5 -159.5t111.5 -173t50 -191q0 -106 -52 -174t-134 -125q16 -37 25.5 -72.5t9.5 -74.5q0 -90 -29 -155.5t-77 -108.5t-111.5 -64.5t-132.5 -21.5q-90 0 -147.5 24.5t-86.5 46.5zM268 725 q0 -55 25.5 -114.5t83.5 -145.5q33 -47 63.5 -91t57.5 -85q53 39 76.5 84t23.5 98q0 59 -45 142t-121 188q-18 25 -36 49t-34 49q-47 -29 -70.5 -68.5t-23.5 -105.5z" />
<glyph unicode="&#xa8;" horiz-adv-x="1024" d="M346 1212q0 43 30 73t73 30q47 0 75.5 -30t28.5 -73q0 -45 -29.5 -74.5t-74.5 -29.5q-43 0 -73 29.5t-30 74.5zM721 1212q0 43 29.5 73t72.5 30q47 0 76 -30t29 -73q0 -45 -30 -74.5t-75 -29.5q-43 0 -72.5 29.5t-29.5 74.5z" />
<glyph unicode="&#xa9;" horiz-adv-x="1689" d="M123 735q0 158 60.5 297t164 242.5t241.5 164t296 60.5t297 -60.5t242.5 -164t164 -242.5t60.5 -297t-60.5 -297t-164 -242.5t-243 -164t-296.5 -60.5q-158 0 -296 60.5t-241.5 164t-164 243t-60.5 296.5zM238 735q0 -143 49 -264t135 -208t204.5 -136t258.5 -49 q139 0 258 49t206 136t136 208t49 264t-49 263t-136 208t-206 137.5t-258 49.5t-258 -49.5t-205 -137.5t-135 -207.5t-49 -263.5zM432 735q0 100 36 186.5t99.5 151t149.5 101t184 36.5q109 0 173.5 -30.5t115.5 -71.5l-78 -98q-33 29 -81 54.5t-132 25.5q-82 0 -141.5 -32 t-99.5 -82t-59 -112.5t-19 -124.5q0 -74 25.5 -139t69.5 -114.5t104.5 -77t129.5 -27.5q90 0 146.5 30.5t91.5 59.5l63 -104q-51 -41 -123.5 -74t-185.5 -33q-102 0 -188 38t-148.5 102.5t-97.5 151.5t-35 183z" />
<glyph unicode="&#xaa;" horiz-adv-x="718" d="M129 850q0 98 30.5 194.5t88 173t138.5 124t183 47.5q78 0 131.5 -12.5t75.5 -20.5l-69 -389q-10 -61 -18.5 -116.5t-12.5 -96.5l-10 -92h-121q10 59 17 110t22 111h-2q-47 -100 -116 -170t-157 -70q-86 0 -133 58.5t-47 148.5zM260 864q0 -41 17.5 -73.5t64.5 -32.5 q45 0 92 41t86 105.5t68.5 146.5t42.5 161l8 54q-12 4 -38 8t-52 4q-66 0 -119 -34t-91 -90t-58.5 -132t-20.5 -158z" />
<glyph unicode="&#xab;" horiz-adv-x="921" d="M61 502l342 389h164l-350 -402l197 -374h-148zM426 502l342 389h164l-350 -402l196 -374h-147z" />
<glyph unicode="&#xac;" horiz-adv-x="991" d="M86 0l199 1049h147l-194 -1049h-152zM365 549l509 500h183l-522 -502l358 -547h-166z" />
<glyph unicode="&#xad;" horiz-adv-x="624" d="M111 522l22 131h412l-23 -131h-411z" />
<glyph unicode="&#xae;" horiz-adv-x="1689" d="M123 735q0 158 60.5 297t164 242.5t241.5 164t296 60.5t297 -60.5t242.5 -164t164 -242.5t60.5 -297t-60.5 -297t-164 -242.5t-243 -164t-296.5 -60.5q-158 0 -296 60.5t-241.5 164t-164 243t-60.5 296.5zM238 735q0 -143 49 -264t135 -208t204.5 -136t258.5 -49 q139 0 258 49t206 136t136 208t49 264t-49 263t-136 208t-206 137.5t-258 49.5t-258 -49.5t-205 -137.5t-135 -207.5t-49 -263.5zM608 279v925h301q70 0 124 -21.5t89 -57t53.5 -83t18.5 -98.5q0 -102 -64.5 -162.5t-181.5 -76.5q31 -23 55.5 -51.5t53.5 -69.5l215 -305 h-162l-223 325q-35 51 -63.5 70.5t-82.5 19.5v-415h-133zM741 799h95q39 0 77.5 4t69.5 18.5t49.5 44t18.5 78.5q0 66 -38 106t-134 40h-138v-291z" />
<glyph unicode="&#xaf;" horiz-adv-x="1024" d="M352 1176l23 124h555l-23 -124h-555z" />
<glyph unicode="&#xb0;" horiz-adv-x="694" d="M174 1122q0 55 20.5 103.5t56.5 84.5t84 57.5t101 21.5q55 0 103.5 -21.5t84 -57.5t56 -84.5t20.5 -103.5t-20.5 -103t-56 -84t-83.5 -57.5t-104 -21.5q-53 0 -101 21.5t-84 57.5t-56.5 84t-20.5 103zM285 1122q0 -68 43 -116t108 -48q68 0 111 48t43 116q0 66 -43 115 t-111 49q-66 0 -108.5 -49t-42.5 -115z" />
<glyph unicode="&#xb1;" horiz-adv-x="2596" d="M86 0l199 1049h612l-23 -127h-462l-60 -314h412l-23 -125h-411l-90 -483h-154zM975 0l199 1049h612l-23 -127h-463l-59 -314h412l-23 -125h-411l-91 -483h-153zM1864 0l196 1049h152l-172 -922h428l-19 -127h-585z" />
<glyph unicode="&#xb2;" horiz-adv-x="2205" d="M143 -444v1919h1919v-1919h-1919zM297 -291h1612v1612h-1612v-1612zM782 0v1042h140v-495l413 495h162l-414 -489l441 -553h-174q-121 150 -215 268q-41 51 -80 98.5t-68 86.5q-37 43 -65 84v-537h-140z" />
<glyph unicode="&#xb3;" horiz-adv-x="2205" d="M143 -444v1919h1919v-1919h-1919zM297 -291h1612v1612h-1612v-1612zM782 0v1042h140v-495l413 495h162l-414 -489l441 -553h-174q-121 150 -215 268q-41 51 -80 98.5t-68 86.5q-37 43 -65 84v-537h-140z" />
<glyph unicode="&#xb4;" horiz-adv-x="1024" d="M305 1106l227 258h228l-311 -258h-144z" />
<glyph unicode="&#xb6;" horiz-adv-x="1241" d="M186 903q0 100 36 185.5t99.5 146.5t149.5 95t184 34h641l-22 -129h-160l-280 -1597h-136l281 1597h-209l-281 -1597h-137l162 923q-70 0 -130 24.5t-104 69.5t-69 108.5t-25 139.5z" />
<glyph unicode="&#xb7;" horiz-adv-x="481" d="M123 596q0 47 35 82t84 35q47 0 81.5 -35t34.5 -82t-34.5 -82t-81.5 -35q-49 0 -84 35t-35 82z" />
<glyph unicode="&#xb8;" horiz-adv-x="1024" d="M205 -426l31 84q10 -4 35.5 -11t66.5 -7q47 0 74.5 19t27.5 60q0 29 -12 46.5t-32.5 26.5t-47 11t-53.5 0l74 197h104l-51 -135q61 -10 102 -48.5t41 -101.5q0 -78 -65.5 -121t-159.5 -43q-55 0 -87 8.5t-48 14.5z" />
<glyph unicode="&#xb9;" horiz-adv-x="2205" d="M143 -444v1919h1919v-1919h-1919zM297 -291h1612v1612h-1612v-1612zM782 0v1042h140v-495l413 495h162l-414 -489l441 -553h-174q-121 150 -215 268q-41 51 -80 98.5t-68 86.5q-37 43 -65 84v-537h-140z" />
<glyph unicode="&#xba;" horiz-adv-x="739" d="M139 942q0 82 28 163t79 143.5t120.5 101.5t153.5 39q68 0 117 -23t82 -62.5t49 -92t16 -113.5q0 -96 -28.5 -179t-78.5 -143.5t-121 -95.5t-155 -35q-66 0 -113.5 23.5t-81.5 63.5t-50.5 94.5t-16.5 115.5zM268 944q0 -96 35 -145t113 -49q55 0 99 27.5t75 73.5 t47 105.5t16 122.5q0 98 -33.5 151.5t-113.5 53.5q-55 0 -99.5 -29.5t-75 -78t-47 -109.5t-16.5 -123z" />
<glyph unicode="&#xbb;" horiz-adv-x="921" d="M-2 115l342 399l-197 377h148l205 -391l-334 -385h-164zM362 115l343 399l-197 377h147l205 -391l-334 -385h-164z" />
<glyph unicode="&#xbc;" horiz-adv-x="2205" d="M143 -444v1919h1919v-1919h-1919zM297 -291h1612v1612h-1612v-1612zM782 0v1042h140v-495l413 495h162l-414 -489l441 -553h-174q-121 150 -215 268q-41 51 -80 98.5t-68 86.5q-37 43 -65 84v-537h-140z" />
<glyph unicode="&#xbd;" horiz-adv-x="2205" d="M143 -444v1919h1919v-1919h-1919zM297 -291h1612v1612h-1612v-1612zM782 0v1042h140v-495l413 495h162l-414 -489l441 -553h-174q-121 150 -215 268q-41 51 -80 98.5t-68 86.5q-37 43 -65 84v-537h-140z" />
<glyph unicode="&#xbe;" horiz-adv-x="2205" d="M143 -444v1919h1919v-1919h-1919zM297 -291h1612v1612h-1612v-1612zM782 0v1042h140v-495l413 495h162l-414 -489l441 -553h-174q-121 150 -215 268q-41 51 -80 98.5t-68 86.5q-37 43 -65 84v-537h-140z" />
<glyph unicode="&#xbf;" horiz-adv-x="681" d="M31 217q0 61 22.5 108.5t59.5 84t83 64.5t91 52q47 27 71.5 54.5t34.5 76.5l15 78h131l-19 -94q-12 -74 -46 -117t-107 -84q-82 -43 -131.5 -84t-49.5 -120q0 -57 40 -92t122 -35q45 0 82 11t57 21l50 -108q-45 -23 -95.5 -35t-117.5 -12q-72 0 -126.5 19.5t-91 51 t-56 73.5t-19.5 87zM408 967q0 41 30.5 71.5t73.5 30.5q45 0 75.5 -30.5t30.5 -71.5t-30.5 -71t-75.5 -30q-43 0 -73.5 30t-30.5 71z" />
<glyph unicode="&#xc0;" d="M-43 0l764 1364h153l236 -1364h-160l-55 338h-592l-186 -338h-160zM377 473h495l-73 457q-8 47 -15.5 93t-11.5 81q-6 41 -10 80h-4q-16 -41 -39 -82q-18 -37 -42 -81t-48 -91zM516 1733h199l145 -258h-127z" />
<glyph unicode="&#xc1;" d="M-43 0l764 1364h153l236 -1364h-160l-55 338h-592l-186 -338h-160zM377 473h495l-73 457q-8 47 -15.5 93t-11.5 81q-6 41 -10 80h-4q-16 -41 -39 -82q-18 -37 -42 -81t-48 -91zM739 1475l227 258h228l-311 -258h-144z" />
<glyph unicode="&#xc2;" d="M-43 0l764 1364h153l236 -1364h-160l-55 338h-592l-186 -338h-160zM377 473h495l-73 457q-8 47 -15.5 93t-11.5 81q-6 41 -10 80h-4q-16 -41 -39 -82q-18 -37 -42 -81t-48 -91zM482 1477l301 313h102l188 -313h-125l-133 182l-192 -182h-141z" />
<glyph unicode="&#xc3;" d="M-43 0l764 1364h153l236 -1364h-160l-55 338h-592l-186 -338h-160zM377 473h495l-73 457q-8 47 -15.5 93t-11.5 81q-6 41 -10 80h-4q-16 -41 -39 -82q-18 -37 -42 -81t-48 -91zM504 1573q33 43 81 81t114 38q37 0 62.5 -12.5t48 -27.5t45 -27.5t51.5 -12.5 q41 0 68.5 20.5t43.5 39.5l64 -70q-35 -43 -84 -82t-117 -39q-37 0 -62.5 12.5t-48 27.5t-45 27.5t-51.5 12.5q-35 0 -62.5 -21.5t-45.5 -37.5z" />
<glyph unicode="&#xc4;" d="M-43 0l764 1364h153l236 -1364h-160l-55 338h-592l-186 -338h-160zM377 473h495l-73 457q-8 47 -15.5 93t-11.5 81q-6 41 -10 80h-4q-16 -41 -39 -82q-18 -37 -42 -81t-48 -91zM530 1581q0 43 30 73t73 30q47 0 75.5 -30t28.5 -73q0 -45 -29.5 -74.5t-74.5 -29.5 q-43 0 -73 29.5t-30 74.5zM905 1581q0 43 29.5 73t72.5 30q47 0 76 -30t29 -73q0 -45 -30 -74.5t-75 -29.5q-43 0 -72.5 29.5t-29.5 74.5z" />
<glyph unicode="&#xc5;" d="M-43 0l764 1364h153l236 -1364h-160l-55 338h-592l-186 -338h-160zM377 473h495l-73 457q-8 47 -15.5 93t-11.5 81q-6 41 -10 80h-4q-16 -41 -39 -82q-18 -37 -42 -81t-48 -91zM623 1677q0 43 15 79t42 62.5t61.5 41t73.5 14.5t74 -14.5t61.5 -40t42 -61.5t15.5 -79 t-15.5 -78.5t-42 -61.5t-61.5 -40t-74 -14t-73.5 14t-61.5 39t-42 60.5t-15 78.5zM715 1679q0 -47 25.5 -79.5t74.5 -32.5q47 0 73.5 32.5t26.5 79.5q0 49 -26.5 81t-73.5 32q-49 0 -74.5 -31.5t-25.5 -81.5z" />
<glyph unicode="&#xc6;" horiz-adv-x="1658" d="M-129 0l1036 1364h117h653l-24 -135h-529l-80 -438h467l-24 -136h-465l-92 -520h543l-25 -135h-700l61 338h-512l-256 -338h-170zM399 473h432q10 55 21 117q10 53 22.5 119.5t24.5 138.5q29 166 68 377z" />
<glyph unicode="&#xc7;" d="M119 547q0 174 60.5 326.5t165 267t246.5 181.5t308 67q74 0 131 -7.5t101.5 -19.5t79 -29.5t65.5 -38.5l-92 -118q-53 37 -123 58t-174 21q-133 0 -244 -55t-190.5 -151.5t-123.5 -224.5t-44 -271q0 -92 22.5 -173t70.5 -141.5t124 -94t182 -33.5q113 0 193.5 34.5 t150.5 87.5l70 -110q-33 -29 -79 -55.5t-102.5 -47t-118 -33t-124.5 -12.5l-41 -110q61 -10 102 -48t41 -102q0 -78 -65.5 -121t-159.5 -43q-55 0 -87 8.5t-48 14.5l30 84q10 -4 36 -11t67 -7q47 0 74.5 19t27.5 60q0 29 -12 46.5t-32.5 26.5t-47.5 11t-53 0l67 179 q-115 16 -200.5 66t-142 125t-84 170t-27.5 204z" />
<glyph unicode="&#xc8;" horiz-adv-x="1011" d="M100 0l244 1364h686l-24 -135h-529l-80 -438h467l-24 -136h-465l-92 -520h542l-24 -135h-701zM432 1733h199l145 -258h-127z" />
<glyph unicode="&#xc9;" horiz-adv-x="1011" d="M100 0l244 1364h686l-24 -135h-529l-80 -438h467l-24 -136h-465l-92 -520h542l-24 -135h-701zM618 1475l227 258h228l-311 -258h-144z" />
<glyph unicode="&#xca;" horiz-adv-x="1011" d="M100 0l244 1364h686l-24 -135h-529l-80 -438h467l-24 -136h-465l-92 -520h542l-24 -135h-701zM406 1477l301 313h102l188 -313h-125l-133 182l-192 -182h-141z" />
<glyph unicode="&#xcb;" horiz-adv-x="1011" d="M100 0l244 1364h686l-24 -135h-529l-80 -438h467l-24 -136h-465l-92 -520h542l-24 -135h-701zM426 1581q0 43 30 73t73 30q47 0 75.5 -30t28.5 -73q0 -45 -29.5 -74.5t-74.5 -29.5q-43 0 -73 29.5t-30 74.5zM801 1581q0 43 29.5 73t72.5 30q47 0 76 -30t29 -73 q0 -45 -30 -74.5t-75 -29.5q-43 0 -72.5 29.5t-29.5 74.5z" />
<glyph unicode="&#xcc;" horiz-adv-x="563" d="M113 0l243 1364h158l-244 -1364h-157zM158 1733h199l145 -258h-127z" />
<glyph unicode="&#xcd;" horiz-adv-x="563" d="M113 0l243 1364h158l-244 -1364h-157zM377 1475l227 258h228l-311 -258h-144z" />
<glyph unicode="&#xce;" horiz-adv-x="563" d="M113 0l243 1364h158l-244 -1364h-157zM142 1477l301 313h102l188 -313h-125l-133 182l-192 -182h-141z" />
<glyph unicode="&#xcf;" horiz-adv-x="563" d="M113 0l243 1364h158l-244 -1364h-157zM168 1581q0 43 30 73t73 30q47 0 75.5 -30t28.5 -73q0 -45 -29.5 -74.5t-74.5 -29.5q-43 0 -73 29.5t-30 74.5zM543 1581q0 43 29.5 73t72.5 30q47 0 76 -30t29 -73q0 -45 -30 -74.5t-75 -29.5q-43 0 -72.5 29.5t-29.5 74.5z" />
<glyph unicode="&#xd0;" horiz-adv-x="1368" d="M88 643l23 119h141l108 602h302q170 0 292.5 -38t202.5 -106.5t119 -166t39 -215.5q0 -162 -51.5 -313.5t-155.5 -268.5t-261 -186.5t-368 -69.5h-362l114 643h-143zM299 131h205q158 0 278.5 54.5t201.5 148.5t123 221t42 272q0 211 -121 308.5t-385 97.5h-149l-84 -471 h231l-23 -119h-229z" />
<glyph unicode="&#xd1;" horiz-adv-x="1406" d="M94 0l244 1364h154l460 -950q53 -115 80 -199h4q4 41 12.5 97.5t18.5 115.5l166 936h143l-241 -1364h-146l-473 977q-23 47 -40 88t-34 92h-4q-4 -41 -11 -87t-17 -107l-172 -963h-144zM598 1573q33 43 81 81t114 38q37 0 62.5 -12.5t48 -27.5t45 -27.5t51.5 -12.5 q41 0 68.5 20.5t43.5 39.5l64 -70q-35 -43 -84 -82t-117 -39q-37 0 -62.5 12.5t-48 27.5t-45 27.5t-51.5 12.5q-35 0 -62.5 -21.5t-45.5 -37.5z" />
<glyph unicode="&#xd2;" horiz-adv-x="1503" d="M123 563q0 152 53 300.5t150.5 265t234.5 188.5t307 72q145 0 254 -48.5t179.5 -130.5t105.5 -189.5t35 -225.5q0 -152 -51.5 -298.5t-148.5 -262t-235.5 -187.5t-310.5 -72q-137 0 -243.5 48.5t-180 130.5t-111.5 188.5t-38 220.5zM287 565q0 -94 28.5 -177t82 -145.5 t131 -98t176.5 -35.5q135 0 241.5 58t180 155.5t112.5 221.5t39 253q0 92 -26.5 175t-79 145.5t-131 100t-183.5 37.5q-135 0 -240.5 -58t-179 -154.5t-112.5 -221.5t-39 -256zM600 1733h199l145 -258h-127z" />
<glyph unicode="&#xd3;" horiz-adv-x="1503" d="M123 563q0 152 53 300.5t150.5 265t234.5 188.5t307 72q145 0 254 -48.5t179.5 -130.5t105.5 -189.5t35 -225.5q0 -152 -51.5 -298.5t-148.5 -262t-235.5 -187.5t-310.5 -72q-137 0 -243.5 48.5t-180 130.5t-111.5 188.5t-38 220.5zM287 565q0 -94 28.5 -177t82 -145.5 t131 -98t176.5 -35.5q135 0 241.5 58t180 155.5t112.5 221.5t39 253q0 92 -26.5 175t-79 145.5t-131 100t-183.5 37.5q-135 0 -240.5 -58t-179 -154.5t-112.5 -221.5t-39 -256zM809 1475l227 258h228l-311 -258h-144z" />
<glyph unicode="&#xd4;" horiz-adv-x="1503" d="M123 563q0 152 53 300.5t150.5 265t234.5 188.5t307 72q145 0 254 -48.5t179.5 -130.5t105.5 -189.5t35 -225.5q0 -152 -51.5 -298.5t-148.5 -262t-235.5 -187.5t-310.5 -72q-137 0 -243.5 48.5t-180 130.5t-111.5 188.5t-38 220.5zM287 565q0 -94 28.5 -177t82 -145.5 t131 -98t176.5 -35.5q135 0 241.5 58t180 155.5t112.5 221.5t39 253q0 92 -26.5 175t-79 145.5t-131 100t-183.5 37.5q-135 0 -240.5 -58t-179 -154.5t-112.5 -221.5t-39 -256zM578 1477l301 313h102l188 -313h-125l-133 182l-192 -182h-141z" />
<glyph unicode="&#xd5;" horiz-adv-x="1503" d="M123 563q0 152 53 300.5t150.5 265t234.5 188.5t307 72q145 0 254 -48.5t179.5 -130.5t105.5 -189.5t35 -225.5q0 -152 -51.5 -298.5t-148.5 -262t-235.5 -187.5t-310.5 -72q-137 0 -243.5 48.5t-180 130.5t-111.5 188.5t-38 220.5zM287 565q0 -94 28.5 -177t82 -145.5 t131 -98t176.5 -35.5q135 0 241.5 58t180 155.5t112.5 221.5t39 253q0 92 -26.5 175t-79 145.5t-131 100t-183.5 37.5q-135 0 -240.5 -58t-179 -154.5t-112.5 -221.5t-39 -256zM635 1573q33 43 81 81t114 38q37 0 62.5 -12.5t48 -27.5t45 -27.5t51.5 -12.5q41 0 68.5 20.5 t43.5 39.5l64 -70q-35 -43 -84 -82t-117 -39q-37 0 -62.5 12.5t-48 27.5t-45 27.5t-51.5 12.5q-35 0 -62.5 -21.5t-45.5 -37.5z" />
<glyph unicode="&#xd6;" horiz-adv-x="1503" d="M123 563q0 152 53 300.5t150.5 265t234.5 188.5t307 72q145 0 254 -48.5t179.5 -130.5t105.5 -189.5t35 -225.5q0 -152 -51.5 -298.5t-148.5 -262t-235.5 -187.5t-310.5 -72q-137 0 -243.5 48.5t-180 130.5t-111.5 188.5t-38 220.5zM287 565q0 -94 28.5 -177t82 -145.5 t131 -98t176.5 -35.5q135 0 241.5 58t180 155.5t112.5 221.5t39 253q0 92 -26.5 175t-79 145.5t-131 100t-183.5 37.5q-135 0 -240.5 -58t-179 -154.5t-112.5 -221.5t-39 -256zM629 1581q0 43 30 73t73 30q47 0 75.5 -30t28.5 -73q0 -45 -29.5 -74.5t-74.5 -29.5 q-43 0 -73 29.5t-30 74.5zM1004 1581q0 43 29.5 73t72.5 30q47 0 76 -30t29 -73q0 -45 -30 -74.5t-75 -29.5q-43 0 -72.5 29.5t-29.5 74.5z" />
<glyph unicode="&#xd7;" horiz-adv-x="2205" d="M143 -444v1919h1919v-1919h-1919zM297 -291h1612v1612h-1612v-1612zM782 0v1042h140v-495l413 495h162l-414 -489l441 -553h-174q-121 150 -215 268q-41 51 -80 98.5t-68 86.5q-37 43 -65 84v-537h-140z" />
<glyph unicode="&#xd8;" horiz-adv-x="1503" d="M123 -70l196 232q-72 82 -107.5 185.5t-35.5 215.5q0 152 53.5 300.5t150.5 265t234.5 188.5t307.5 72q111 0 198.5 -28t155.5 -79l168 197l84 -70l-172 -201q72 -84 105.5 -189.5t33.5 -223.5q0 -152 -51 -298.5t-148.5 -262t-235.5 -187.5t-310 -72q-106 0 -194.5 29 t-156.5 82l-192 -225zM340 565q0 -168 84 -286l756 886q-51 41 -117 65.5t-152 24.5q-135 0 -240.5 -58t-179 -154.5t-112.5 -221.5t-39 -256zM492 201q53 -43 118.5 -67.5t147.5 -24.5q135 0 241.5 58t180 155.5t112.5 221.5t39 253q0 80 -20.5 154.5t-61.5 133.5l-33 -37 q-32 -38 -85.5 -99.5t-121 -141.5t-138 -163t-139 -163t-122 -142.5t-86.5 -100.5z" />
<glyph unicode="&#xd9;" horiz-adv-x="1382" d="M176.5 295q-16.5 98 3.5 215l152 854h155l-147 -834q-39 -217 32.5 -317t264.5 -100q188 0 286.5 101t135.5 306l149 844h148l-156 -870q-23 -119 -64.5 -214.5t-111.5 -163t-168 -104.5t-233 -37q-133 0 -226.5 40t-148.5 111t-71.5 169zM573 1733h199l145 -258h-127z " />
<glyph unicode="&#xda;" horiz-adv-x="1382" d="M176.5 295q-16.5 98 3.5 215l152 854h155l-147 -834q-39 -217 32.5 -317t264.5 -100q188 0 286.5 101t135.5 306l149 844h148l-156 -870q-23 -119 -64.5 -214.5t-111.5 -163t-168 -104.5t-233 -37q-133 0 -226.5 40t-148.5 111t-71.5 169zM739 1475l227 258h228 l-311 -258h-144z" />
<glyph unicode="&#xdb;" horiz-adv-x="1382" d="M176.5 295q-16.5 98 3.5 215l152 854h155l-147 -834q-39 -217 32.5 -317t264.5 -100q188 0 286.5 101t135.5 306l149 844h148l-156 -870q-23 -119 -64.5 -214.5t-111.5 -163t-168 -104.5t-233 -37q-133 0 -226.5 40t-148.5 111t-71.5 169zM560 1477l301 313h102l188 -313 h-125l-133 182l-192 -182h-141z" />
<glyph unicode="&#xdc;" horiz-adv-x="1382" d="M176.5 295q-16.5 98 3.5 215l152 854h155l-147 -834q-39 -217 32.5 -317t264.5 -100q188 0 286.5 101t135.5 306l149 844h148l-156 -870q-23 -119 -64.5 -214.5t-111.5 -163t-168 -104.5t-233 -37q-133 0 -226.5 40t-148.5 111t-71.5 169zM565 1581q0 43 30 73t73 30 q47 0 75.5 -30t28.5 -73q0 -45 -29.5 -74.5t-74.5 -29.5q-43 0 -73 29.5t-30 74.5zM940 1581q0 43 29.5 73t72.5 30q47 0 76 -30t29 -73q0 -45 -30 -74.5t-75 -29.5q-43 0 -72.5 29.5t-29.5 74.5z" />
<glyph unicode="&#xdd;" horiz-adv-x="1114" d="M184 1364h164l246 -700h2l465 700h166l-578 -852l-92 -512h-158l93 514zM618 1475l227 258h228l-311 -258h-144z" />
<glyph unicode="&#xde;" horiz-adv-x="1081" d="M100 0l244 1364h156l-41 -236h174q190 0 306 -87t116 -253q0 -113 -42 -200.5t-118 -148t-179.5 -92.5t-226.5 -32h-174l-57 -315h-158zM340 451h164q197 0 291 87t94 232q0 51 -14.5 92t-48 70t-88 45t-132.5 16h-170z" />
<glyph unicode="&#xdf;" horiz-adv-x="1572" d="M-14 104l90 103q16 -14 37.5 -31.5t51.5 -32t69.5 -24.5t93.5 -10q104 0 149 47t45 112q0 33 -10 59.5t-31.5 52.5t-54.5 53.5t-78 64.5q-41 33 -78 65.5t-64.5 68.5t-44 77t-16.5 92q0 63 25 113.5t69 84t103 52t129 18.5q109 0 173.5 -28.5t98.5 -55.5l-75 -108 q-33 25 -78 46t-127 21q-86 0 -129 -37t-43 -100q0 -31 9 -55.5t29.5 -49t52.5 -51t75 -61.5q41 -33 79.5 -67t68.5 -71.5t48.5 -81.5t18.5 -96q0 -55 -20.5 -108t-63.5 -94t-110 -65.5t-159 -24.5q-72 0 -126 13t-95 31.5t-68.5 40t-43.5 37.5zM772 104l90 103 q16 -14 38 -31.5t51.5 -32t69.5 -24.5t93 -10q104 0 149.5 47t45.5 112q0 33 -10.5 59.5t-32 52.5t-54 53.5t-77.5 64.5q-41 33 -78 65.5t-64.5 68.5t-44 77t-16.5 92q0 63 24.5 113.5t68.5 84t103.5 52t128.5 18.5q109 0 173.5 -28.5t99.5 -55.5l-76 -108q-33 25 -78 46 t-127 21q-86 0 -129 -37t-43 -100q0 -31 9.5 -55.5t30 -49t52 -51t74.5 -61.5q41 -33 80 -67t68.5 -71.5t48 -81.5t18.5 -96q0 -55 -20.5 -108t-63.5 -94t-109.5 -65.5t-158.5 -24.5q-72 0 -126 13t-95 31.5t-69 40t-44 37.5z" />
<glyph unicode="&#xe0;" horiz-adv-x="1044" d="M-45 0l616 1049h148l192 -1049h-149l-43 240h-473l-137 -240h-154zM319 369h377l-57 327q-8 37 -12 71t-9 62q-4 31 -6 60h-4q-12 -29 -28 -60q-14 -29 -33 -62.5t-39 -70.5zM369 1446h199l145 -258h-127z" />
<glyph unicode="&#xe1;" horiz-adv-x="1044" d="M-45 0l616 1049h148l192 -1049h-149l-43 240h-473l-137 -240h-154zM319 369h377l-57 327q-8 37 -12 71t-9 62q-4 31 -6 60h-4q-12 -29 -28 -60q-14 -29 -33 -62.5t-39 -70.5zM588 1188l227 258h228l-311 -258h-144z" />
<glyph unicode="&#xe2;" horiz-adv-x="1044" d="M-45 0l616 1049h148l192 -1049h-149l-43 240h-473l-137 -240h-154zM319 369h377l-57 327q-8 37 -12 71t-9 62q-4 31 -6 60h-4q-12 -29 -28 -60q-14 -29 -33 -62.5t-39 -70.5zM349 1190l301 313h102l188 -313h-125l-133 182l-192 -182h-141z" />
<glyph unicode="&#xe3;" horiz-adv-x="1044" d="M-45 0l616 1049h148l192 -1049h-149l-43 240h-473l-137 -240h-154zM319 369h377l-57 327q-8 37 -12 71t-9 62q-4 31 -6 60h-4q-12 -29 -28 -60q-14 -29 -33 -62.5t-39 -70.5zM377 1286q33 43 81 81t114 38q37 0 62.5 -12.5t48 -27.5t45 -27.5t51.5 -12.5q41 0 68.5 20.5 t43.5 39.5l64 -70q-35 -43 -84 -82t-117 -39q-37 0 -62.5 12.5t-48 27.5t-45 27.5t-51.5 12.5q-35 0 -62.5 -21.5t-45.5 -37.5z" />
<glyph unicode="&#xe4;" horiz-adv-x="1044" d="M-45 0l616 1049h148l192 -1049h-149l-43 240h-473l-137 -240h-154zM319 369h377l-57 327q-8 37 -12 71t-9 62q-4 31 -6 60h-4q-12 -29 -28 -60q-14 -29 -33 -62.5t-39 -70.5zM373 1294q0 43 30 73t73 30q47 0 75.5 -30t28.5 -73q0 -45 -29.5 -74.5t-74.5 -29.5 q-43 0 -73 29.5t-30 74.5zM748 1294q0 43 29.5 73t72.5 30q47 0 76 -30t29 -73q0 -45 -30 -74.5t-75 -29.5q-43 0 -72.5 29.5t-29.5 74.5z" />
<glyph unicode="&#xe5;" horiz-adv-x="1044" d="M-45 0l616 1049h148l192 -1049h-149l-43 240h-473l-137 -240h-154zM319 369h377l-57 327q-8 37 -12 71t-9 62q-4 31 -6 60h-4q-12 -29 -28 -60q-14 -29 -33 -62.5t-39 -70.5zM490 1309q0 43 15.5 78.5t42 62.5t61 41t73.5 14t74 -14t61.5 -40t42 -61.5t15.5 -78.5 t-15.5 -79t-42 -61.5t-61.5 -40t-74 -14.5t-73.5 14.5t-61 39t-42 60.5t-15.5 79zM582 1311q0 -47 25.5 -80t74.5 -33q47 0 74 33t27 80q0 49 -27 80.5t-74 31.5q-49 0 -74.5 -31.5t-25.5 -80.5z" />
<glyph unicode="&#xe6;" horiz-adv-x="1449" d="M-88 0l831 1049h689l-25 -127h-463l-57 -308h413l-22 -125h-414l-69 -362h483l-25 -127h-632l47 244h-398l-192 -244h-166zM369 371h323l105 547z" />
<glyph unicode="&#xe7;" horiz-adv-x="1019" d="M84 422q0 131 48 248.5t133 207t201 140.5t253 51q121 0 189.5 -21.5t115.5 -54.5l-80 -112q-41 27 -96 43t-141 16q-102 0 -187.5 -40t-147 -109.5t-95 -162.5t-33.5 -198q0 -68 17.5 -126t54 -101t94 -67.5t137.5 -24.5q90 0 154.5 26.5t117.5 65.5l64 -107 q-51 -43 -141.5 -77.5t-200.5 -36.5l-45 -117q61 -10 102 -48t41 -102q0 -78 -65.5 -121t-159.5 -43q-55 0 -87 8.5t-48 14.5l30 84q10 -4 36 -11t67 -7q47 0 74.5 19t27.5 60q0 29 -12.5 46.5t-32.5 26.5t-47 11t-53 0l69 185q-90 14 -156.5 53t-110.5 96.5t-65.5 130 t-21.5 154.5z" />
<glyph unicode="&#xe8;" horiz-adv-x="937" d="M86 0l197 1049h614l-25 -127h-462l-58 -308h414l-23 -125h-413l-70 -362h483l-24 -127h-633zM324 1446h199l145 -258h-127z" />
<glyph unicode="&#xe9;" horiz-adv-x="937" d="M86 0l197 1049h614l-25 -127h-462l-58 -308h414l-23 -125h-413l-70 -362h483l-24 -127h-633zM518 1188l227 258h228l-311 -258h-144z" />
<glyph unicode="&#xea;" horiz-adv-x="937" d="M86 0l197 1049h614l-25 -127h-462l-58 -308h414l-23 -125h-413l-70 -362h483l-24 -127h-633zM314 1190l301 313h102l188 -313h-125l-133 182l-192 -182h-141z" />
<glyph unicode="&#xeb;" horiz-adv-x="937" d="M86 0l197 1049h614l-25 -127h-462l-58 -308h414l-23 -125h-413l-70 -362h483l-24 -127h-633zM326 1294q0 43 30 73t73 30q47 0 75.5 -30t28.5 -73q0 -45 -29.5 -74.5t-74.5 -29.5q-43 0 -73 29.5t-30 74.5zM701 1294q0 43 29.5 73t72.5 30q47 0 76 -30t29 -73 q0 -45 -30 -74.5t-75 -29.5q-43 0 -72.5 29.5t-29.5 74.5z" />
<glyph unicode="&#xec;" horiz-adv-x="540" d="M92 1446h199l145 -258h-127zM96 0l197 1049h151l-196 -1049h-152z" />
<glyph unicode="&#xed;" horiz-adv-x="540" d="M96 0l197 1049h151l-196 -1049h-152zM311 1188l228 258h227l-311 -258h-144z" />
<glyph unicode="&#xee;" horiz-adv-x="540" d="M96 0l197 1049h151l-196 -1049h-152zM96 1190l301 313h103l188 -313h-125l-133 182l-192 -182h-142z" />
<glyph unicode="&#xef;" horiz-adv-x="540" d="M96 0l197 1049h151l-196 -1049h-152zM115 1294q0 43 29.5 73t72.5 30q47 0 76 -30t29 -73q0 -45 -30 -74.5t-75 -29.5q-43 0 -72.5 29.5t-29.5 74.5zM489 1294q0 43 30 73t73 30q47 0 75.5 -30t28.5 -73q0 -45 -29.5 -74.5t-74.5 -29.5q-43 0 -73 29.5t-30 74.5z" />
<glyph unicode="&#xf0;" horiz-adv-x="1157" d="M55 461l21 119h129l88 469h262q268 0 398 -112t130 -296q0 -127 -42 -242.5t-126 -204t-213 -141.5t-301 -53h-305l86 461h-127zM272 125h156q121 0 214 39t155.5 107.5t94.5 160.5t32 201q0 152 -90.5 222.5t-292.5 70.5h-119l-66 -346h230l-21 -119h-231z" />
<glyph unicode="&#xf1;" horiz-adv-x="1212" d="M82 0l197 1049h149l348 -687q25 -49 43.5 -93t26.5 -68h2q4 25 9 70.5t15 97.5l129 680h138l-195 -1049h-137l-365 711q-23 47 -38 82.5t-25 64.5h-2q-4 -29 -8 -65.5t-15 -87.5l-135 -705h-137zM440 1286q33 43 81 81t114 38q37 0 62.5 -12.5t48 -27.5t45 -27.5 t51.5 -12.5q41 0 68.5 20.5t43.5 39.5l64 -70q-35 -43 -84 -82t-117 -39q-37 0 -62.5 12.5t-48 27.5t-45 27.5t-51.5 12.5q-35 0 -62.5 -21.5t-45.5 -37.5z" />
<glyph unicode="&#xf2;" horiz-adv-x="1241" d="M86 434q0 119 44 232.5t125 202.5t192.5 144.5t246.5 55.5q117 0 205 -37t146.5 -100.5t88 -145t29.5 -174.5q0 -117 -43 -230.5t-122.5 -202.5t-192.5 -143t-252 -54q-113 0 -200 37.5t-146.5 100t-90 144.5t-30.5 170zM244 436q0 -68 21.5 -128t61.5 -104t99 -69.5 t137 -25.5q104 0 186 43t139.5 113.5t87.5 160.5t30 186q0 68 -20.5 127.5t-60.5 104.5t-100.5 71.5t-140.5 26.5q-104 0 -185 -43t-138.5 -113.5t-87 -162t-29.5 -187.5zM403 1446h199l145 -258h-127z" />
<glyph unicode="&#xf3;" horiz-adv-x="1241" d="M86 434q0 119 44 232.5t125 202.5t192.5 144.5t246.5 55.5q117 0 205 -37t146.5 -100.5t88 -145t29.5 -174.5q0 -117 -43 -230.5t-122.5 -202.5t-192.5 -143t-252 -54q-113 0 -200 37.5t-146.5 100t-90 144.5t-30.5 170zM244 436q0 -68 21.5 -128t61.5 -104t99 -69.5 t137 -25.5q104 0 186 43t139.5 113.5t87.5 160.5t30 186q0 68 -20.5 127.5t-60.5 104.5t-100.5 71.5t-140.5 26.5q-104 0 -185 -43t-138.5 -113.5t-87 -162t-29.5 -187.5zM635 1188l227 258h228l-311 -258h-144z" />
<glyph unicode="&#xf4;" horiz-adv-x="1241" d="M86 434q0 119 44 232.5t125 202.5t192.5 144.5t246.5 55.5q117 0 205 -37t146.5 -100.5t88 -145t29.5 -174.5q0 -117 -43 -230.5t-122.5 -202.5t-192.5 -143t-252 -54q-113 0 -200 37.5t-146.5 100t-90 144.5t-30.5 170zM244 436q0 -68 21.5 -128t61.5 -104t99 -69.5 t137 -25.5q104 0 186 43t139.5 113.5t87.5 160.5t30 186q0 68 -20.5 127.5t-60.5 104.5t-100.5 71.5t-140.5 26.5q-104 0 -185 -43t-138.5 -113.5t-87 -162t-29.5 -187.5zM422 1190l301 313h102l188 -313h-125l-133 182l-192 -182h-141z" />
<glyph unicode="&#xf5;" horiz-adv-x="1241" d="M86 434q0 119 44 232.5t125 202.5t192.5 144.5t246.5 55.5q117 0 205 -37t146.5 -100.5t88 -145t29.5 -174.5q0 -117 -43 -230.5t-122.5 -202.5t-192.5 -143t-252 -54q-113 0 -200 37.5t-146.5 100t-90 144.5t-30.5 170zM244 436q0 -68 21.5 -128t61.5 -104t99 -69.5 t137 -25.5q104 0 186 43t139.5 113.5t87.5 160.5t30 186q0 68 -20.5 127.5t-60.5 104.5t-100.5 71.5t-140.5 26.5q-104 0 -185 -43t-138.5 -113.5t-87 -162t-29.5 -187.5zM467 1286q33 43 81 81t114 38q37 0 62.5 -12.5t48 -27.5t45 -27.5t51.5 -12.5q41 0 68.5 20.5 t43.5 39.5l64 -70q-35 -43 -84 -82t-117 -39q-37 0 -62.5 12.5t-48 27.5t-45 27.5t-51.5 12.5q-35 0 -62.5 -21.5t-45.5 -37.5z" />
<glyph unicode="&#xf6;" horiz-adv-x="1241" d="M86 434q0 119 44 232.5t125 202.5t192.5 144.5t246.5 55.5q117 0 205 -37t146.5 -100.5t88 -145t29.5 -174.5q0 -117 -43 -230.5t-122.5 -202.5t-192.5 -143t-252 -54q-113 0 -200 37.5t-146.5 100t-90 144.5t-30.5 170zM244 436q0 -68 21.5 -128t61.5 -104t99 -69.5 t137 -25.5q104 0 186 43t139.5 113.5t87.5 160.5t30 186q0 68 -20.5 127.5t-60.5 104.5t-100.5 71.5t-140.5 26.5q-104 0 -185 -43t-138.5 -113.5t-87 -162t-29.5 -187.5zM448 1294q0 43 30 73t73 30q47 0 75.5 -30t28.5 -73q0 -45 -29.5 -74.5t-74.5 -29.5q-43 0 -73 29.5 t-30 74.5zM823 1294q0 43 29.5 73t72.5 30q47 0 76 -30t29 -73q0 -45 -30 -74.5t-75 -29.5q-43 0 -72.5 29.5t-29.5 74.5z" />
<glyph unicode="&#xf7;" horiz-adv-x="2111" d="M143 -446v1919h1919v-1919h-1919zM297 -293h1612v1612h-1612v-1612zM655 -2l400 1042h139l401 -1042h-155l-90 244h-463l-90 -244h-142zM930 360h377l-123 336q-12 33 -23.5 66t-21.5 59q-10 31 -19 58h-4q-10 -27 -18 -58q-10 -27 -20.5 -59.5t-22.5 -65.5z" />
<glyph unicode="&#xf8;" horiz-adv-x="1241" d="M86 -45l78 86q14 16 28.5 31.5t24.5 27.5q12 14 25 29q-53 63 -82 141t-29 164q0 119 44 232.5t125 202.5t192.5 144.5t246.5 55.5q88 0 159 -20.5t124 -57.5l135 152l80 -68l-137 -151q53 -63 80.5 -143.5t27.5 -168.5q0 -117 -43 -230.5t-122.5 -202.5t-192.5 -143 t-252 -54q-84 0 -152.5 21.5t-123.5 57.5l-156 -174zM289 436q0 -115 55 -196l584 643q-39 29 -88 44t-111 15q-104 0 -185 -43t-138.5 -113.5t-87 -162t-29.5 -187.5zM412 168q39 -29 88 -44t108 -15q104 0 186.5 43t139.5 113.5t87 160.5t30 186q-1 115 -56 199 q-164 -180 -290 -322q-55 -61 -107.5 -118.5t-93.5 -102.5q-49 -53 -92 -100z" />
<glyph unicode="&#xf9;" horiz-adv-x="1146" d="M128 243q-13 79 3 169l119 637h149l-116 -623q-29 -154 24 -234.5t203 -80.5t222.5 79.5t101.5 227.5l118 631h142l-123 -650q-39 -203 -151.5 -310t-321.5 -107q-111 0 -189 32.5t-123 91t-58 137.5zM416 1446h199l145 -258h-127z" />
<glyph unicode="&#xfa;" horiz-adv-x="1146" d="M128 243q-13 79 3 169l119 637h149l-116 -623q-29 -154 24 -234.5t203 -80.5t222.5 79.5t101.5 227.5l118 631h142l-123 -650q-39 -203 -151.5 -310t-321.5 -107q-111 0 -189 32.5t-123 91t-58 137.5zM586 1188l227 258h228l-311 -258h-144z" />
<glyph unicode="&#xfb;" horiz-adv-x="1146" d="M128 243q-13 79 3 169l119 637h149l-116 -623q-29 -154 24 -234.5t203 -80.5t222.5 79.5t101.5 227.5l118 631h142l-123 -650q-39 -203 -151.5 -310t-321.5 -107q-111 0 -189 32.5t-123 91t-58 137.5zM396 1190l301 313h102l188 -313h-125l-133 182l-192 -182h-141z" />
<glyph unicode="&#xfc;" horiz-adv-x="1146" d="M128 243q-13 79 3 169l119 637h149l-116 -623q-29 -154 24 -234.5t203 -80.5t222.5 79.5t101.5 227.5l118 631h142l-123 -650q-39 -203 -151.5 -310t-321.5 -107q-111 0 -189 32.5t-123 91t-58 137.5zM409 1294q0 43 30 73t73 30q47 0 75.5 -30t28.5 -73 q0 -45 -29.5 -74.5t-74.5 -29.5q-43 0 -73 29.5t-30 74.5zM784 1294q0 43 29.5 73t72.5 30q47 0 76 -30t29 -73q0 -45 -30 -74.5t-75 -29.5q-43 0 -72.5 29.5t-29.5 74.5z" />
<glyph unicode="&#xfd;" horiz-adv-x="940" d="M135 1049h158l188 -514l359 514h157l-462 -656l-78 -393h-150l74 395zM485 1188l227 258h228l-311 -258h-144z" />
<glyph unicode="&#xfe;" horiz-adv-x="937" d="M86 0l197 1049h151l-35 -185h129q154 0 250 -69.5t96 -198.5q0 -90 -34.5 -159.5t-97 -117t-147.5 -72t-185 -24.5h-129l-43 -223h-152zM303 348h121q154 0 224.5 63.5t70.5 170.5q0 72 -49 115.5t-166 43.5h-127z" />
<glyph unicode="&#xff;" horiz-adv-x="940" d="M135 1049h158l188 -514l359 514h157l-462 -656l-78 -393h-150l74 395zM305 1294q0 43 30 73t73 30q47 0 75.5 -30t28.5 -73q0 -45 -29.5 -74.5t-74.5 -29.5q-43 0 -73 29.5t-30 74.5zM680 1294q0 43 29.5 73t72.5 30q47 0 76 -30t29 -73q0 -45 -30 -74.5t-75 -29.5 q-43 0 -72.5 29.5t-29.5 74.5z" />
<glyph unicode="&#x152;" horiz-adv-x="1767" d="M123 563q0 152 53 300.5t151.5 265t236.5 188.5t310 72q66 0 123.5 -4.5t110.5 -20.5h678l-25 -135h-528l-80 -438h467l-25 -136h-465l-92 -520h543l-25 -135h-675q-90 -25 -189 -25q-139 0 -244.5 47.5t-178 128t-109.5 187t-37 225.5zM287 565q0 -96 26.5 -179 t78.5 -144.5t129 -97t179 -35.5q96 0 181 30l192 1082q-45 20 -97 27t-112 7q-137 0 -244.5 -58t-181 -154.5t-112.5 -221.5t-39 -256z" />
<glyph unicode="&#x153;" horiz-adv-x="1470" d="M86 434q0 119 44 232.5t125 202.5t192.5 144.5t246.5 55.5q45 0 86 -5t78 -15h639l-24 -127h-463l-58 -308h414l-23 -125h-413l-70 -362h483l-24 -127h-610q-72 -18 -156 -18q-113 0 -200 37.5t-146.5 100t-90 144.5t-30.5 170zM244 436q0 -68 21.5 -128t61.5 -104 t99 -69.5t137 -25.5q45 0 81 7t69 21q39 215 71 385q12 72 25.5 141.5t24.5 122.5q12 63 22 119q-68 37 -172 37t-185 -43t-138.5 -113.5t-87 -162t-29.5 -187.5z" />
<glyph unicode="&#x178;" horiz-adv-x="1114" d="M184 1364h164l246 -700h2l465 700h166l-578 -852l-92 -512h-158l93 514zM434 1581q0 43 30 73t73 30q47 0 75.5 -30t28.5 -73q0 -45 -29.5 -74.5t-74.5 -29.5q-43 0 -73 29.5t-30 74.5zM809 1581q0 43 29.5 73t72.5 30q47 0 76 -30t29 -73q0 -45 -30 -74.5t-75 -29.5 q-43 0 -72.5 29.5t-29.5 74.5z" />
<glyph unicode="&#x2c6;" horiz-adv-x="1024" d="M322 1108l301 313h102l188 -313h-125l-133 182l-192 -182h-141z" />
<glyph unicode="&#x2dc;" horiz-adv-x="1024" d="M350 1204q33 43 81 81t114 38q37 0 62.5 -12.5t48 -27.5t45 -27.5t51.5 -12.5q41 0 68.5 20.5t43.5 39.5l64 -70q-35 -43 -84 -82t-117 -39q-37 0 -62.5 12.5t-48 27.5t-45 27.5t-51.5 12.5q-35 0 -62.5 -21.5t-45.5 -37.5z" />
<glyph unicode="&#x2000;" horiz-adv-x="937" />
<glyph unicode="&#x2001;" horiz-adv-x="1874" />
<glyph unicode="&#x2002;" horiz-adv-x="937" />
<glyph unicode="&#x2003;" horiz-adv-x="1874" />
<glyph unicode="&#x2004;" horiz-adv-x="624" />
<glyph unicode="&#x2005;" horiz-adv-x="468" />
<glyph unicode="&#x2006;" horiz-adv-x="312" />
<glyph unicode="&#x2007;" horiz-adv-x="312" />
<glyph unicode="&#x2008;" horiz-adv-x="234" />
<glyph unicode="&#x2009;" horiz-adv-x="374" />
<glyph unicode="&#x200a;" horiz-adv-x="104" />
<glyph unicode="&#x2010;" horiz-adv-x="624" d="M111 522l22 131h412l-23 -131h-411z" />
<glyph unicode="&#x2011;" horiz-adv-x="624" d="M111 522l22 131h412l-23 -131h-411z" />
<glyph unicode="&#x2012;" horiz-adv-x="624" d="M111 522l22 131h412l-23 -131h-411z" />
<glyph unicode="&#x2013;" horiz-adv-x="1148" d="M106 500l23 125h936l-23 -125h-936z" />
<glyph unicode="&#x2014;" horiz-adv-x="1777" d="M106 500l23 125h1565l-23 -125h-1565z" />
<glyph unicode="&#x2018;" horiz-adv-x="389" d="M168 1024q0 57 24.5 114.5t59.5 106.5t76 90t73 66l60 -53q-39 -37 -76 -86.5t-37 -102.5q0 -25 8.5 -42t19.5 -34.5t19 -36t8 -47.5q0 -47 -31.5 -78.5t-78.5 -31.5t-86 34.5t-39 100.5z" />
<glyph unicode="&#x2019;" horiz-adv-x="389" d="M156 930q39 37 75.5 86t36.5 102q0 25 -8 42.5t-19.5 34.5t-19.5 35.5t-8 47.5q0 47 31.5 79t79.5 32q47 0 86 -35t39 -101q0 -59 -25 -115.5t-59.5 -105.5t-75.5 -90t-74 -65z" />
<glyph unicode="&#x201a;" horiz-adv-x="389" d="M-53 -236q39 37 75.5 86.5t36.5 102.5q0 25 -8 42t-19.5 34.5t-19.5 36t-8 47.5q0 47 32 78.5t79 31.5t86 -34.5t39 -100.5q0 -59 -25 -115.5t-59.5 -105.5t-75.5 -90t-74 -66z" />
<glyph unicode="&#x201c;" horiz-adv-x="733" d="M168 1024q0 57 24.5 114.5t59.5 106.5t76 90t73 66l60 -53q-39 -37 -76 -86.5t-37 -102.5q0 -25 8.5 -42t19.5 -34.5t19 -36t8 -47.5q0 -47 -31.5 -78.5t-78.5 -31.5t-86 34.5t-39 100.5zM512 1024q0 57 24.5 114.5t59.5 106.5t76 90t73 66l60 -53q-39 -37 -76 -86.5 t-37 -102.5q0 -25 8.5 -42t19.5 -34.5t19.5 -36t8.5 -47.5q0 -47 -32 -78.5t-79 -31.5t-86 34.5t-39 100.5z" />
<glyph unicode="&#x201d;" horiz-adv-x="733" d="M156 930q39 37 75.5 86t36.5 102q0 25 -8 42.5t-19.5 34.5t-19.5 35.5t-8 47.5q0 47 31.5 79t79.5 32q47 0 86 -35t39 -101q0 -59 -25 -115.5t-59.5 -105.5t-75.5 -90t-74 -65zM500 930q39 37 75.5 86t36.5 102q0 25 -8 42.5t-19.5 34.5t-19.5 35.5t-8 47.5q0 47 32 79 t79 32t86 -35t39 -101q0 -59 -25 -115.5t-59.5 -105.5t-75.5 -90t-74 -65z" />
<glyph unicode="&#x201e;" horiz-adv-x="733" d="M-53 -236q39 37 75.5 86.5t36.5 102.5q0 25 -8 42t-19.5 34.5t-19.5 36t-8 47.5q0 47 32 78.5t79 31.5t86 -34.5t39 -100.5q0 -59 -25 -115.5t-59.5 -105.5t-75.5 -90t-74 -66zM291 -236q39 37 75.5 86.5t36.5 102.5q0 25 -8 42t-19 34.5t-19.5 36t-8.5 47.5 q0 47 32 78.5t79 31.5t86 -34.5t39 -100.5q0 -59 -24.5 -115.5t-59.5 -105.5t-76 -90t-74 -66z" />
<glyph unicode="&#x2022;" horiz-adv-x="727" d="M113 586q0 53 19.5 99t53 81t78.5 55.5t98 20.5t99.5 -20.5t80 -55.5t53 -81t19.5 -99t-19.5 -99.5t-53 -81t-79.5 -54t-100 -19.5q-53 0 -98 19.5t-78.5 54t-53 80.5t-19.5 100z" />
<glyph unicode="&#x2026;" horiz-adv-x="1259" d="M39 102q0 49 33.5 84t87.5 35q49 0 85 -35t36 -84t-36 -84.5t-85 -35.5q-53 0 -87 35.5t-34 84.5zM451 102q0 49 33.5 84t84.5 35t86 -35t35 -84t-34.5 -84.5t-86.5 -35.5q-51 0 -84.5 35.5t-33.5 84.5zM860 102q0 49 35 84t86 35q49 0 85 -35t36 -84t-36 -84.5 t-85 -35.5q-51 0 -86 35.5t-35 84.5z" />
<glyph unicode="&#x202f;" horiz-adv-x="374" />
<glyph unicode="&#x2039;" horiz-adv-x="557" d="M61 502l342 389h164l-350 -402l197 -374h-148z" />
<glyph unicode="&#x203a;" horiz-adv-x="557" d="M-2 115l342 399l-197 377h148l205 -391l-334 -385h-164z" />
<glyph unicode="&#x205f;" horiz-adv-x="468" />
<glyph unicode="&#x2122;" horiz-adv-x="1345" d="M170 1272l14 92h445l-17 -92h-163l-89 -504h-108l88 504h-170zM596 768l168 596h113l73 -350q4 -23 7.5 -45.5t5.5 -40.5q2 -23 4 -43h4q8 18 18 41q16 39 45 90l193 348h129l-41 -596h-107l29 338q2 23 4 45.5t6 42.5q4 23 6 45h-4q-8 -23 -18 -45l-23.5 -47t-29.5 -55 l-187 -324h-88l-63 307q-6 29 -10.5 56.5t-8.5 52.5q-4 27 -6 55h-4q-2 -16 -6 -39q-6 -35 -23 -98l-88 -334h-98z" />
<glyph unicode="&#xe000;" horiz-adv-x="1044" d="M0 0v1044h1044v-1044h-1044z" />
</font>
</defs>
</svg>
